<?xml version="1.0" encoding="utf-8"?>
<!-- Generator: Adobe Illustrator 25.2.1, SVG Export Plug-In . SVG Version: 6.00 Build 0)  -->
<svg version="1.1" id="Layer_1" xmlns="http://www.w3.org/2000/svg" xmlns:xlink="http://www.w3.org/1999/xlink" x="0px" y="0px"
	 viewBox="0 0 150 150" style="enable-background:new 0 0 150 150;" xml:space="preserve">
<g>
	<path d="M101.14,125.13c2.44,1.24,4.89,2.52,7.37,3.74c1.77,0.87,3.59,1.62,5.37,2.47c0.62,0.29,0.92,0.74,0.34,1.41
		c-0.66,0.76-0.48,1.36,0.46,1.73c0.51,0.2,1.05,0.35,1.53,0.59c0.87,0.44,1.42,0.46,1.73-0.69c0.23-0.87,1.31-0.79,1.9,0.13
		c0.18,0.28,0.21,0.65,0.34,1.07c-1.08,0.07-2.15-0.2-2.72,0.96c-0.07,0.15-0.88,0.07-1.26-0.1c-5.4-2.31-10.78-4.64-16.16-7
		c-0.81-0.35-1.29-0.27-1.84,0.53c-2.65,3.85-5.77,7.26-9.54,10.04c-10.01,7.39-21.27,7.34-31.19-0.17
		c-6.3-4.77-10.71-11.05-14.21-18.03c-5.27-10.5-8.08-21.7-9.34-33.32c-1.64-15.11-0.64-30.04,3.48-44.7
		c2.56-9.12,6.28-17.71,12.09-25.28c2.57-3.35,5.51-6.33,8.99-8.75C68,3.14,78.66,3.18,88.1,9.94c6.19,4.43,10.61,10.37,14.15,17
		c5.36,10.04,8.32,20.84,9.82,32.06c0.98,7.31,1.52,14.64,1.03,22.02c-0.97,14.66-3.77,28.85-10.64,42.02
		C102.09,123.73,101.62,124.37,101.14,125.13z M59.2,84.85c0.21,0.7,0.51,1.25,0.52,1.81c0.02,1.2-0.09,2.41-0.18,3.61
		c-0.06,0.79,0.08,1.4,0.98,1.57c0.74,0.14,1.47,0.29,2.32,0.46c0.23,1.12,0.49,2.33,0.77,3.68c-1.3,0.27-2.61,0.49-3.89,0.85
		c-0.35,0.1-0.82,0.63-0.82,0.95c0.01,1.3,0.24,2.6,0.29,3.91c0.06,1.59,0.01,3.18,0.01,4.7c1.65,0.82,3.13,1.61,4.64,2.3
		c1.56,0.71,3.15,1.33,4.96,2.08c0-2.79,0.07-5.38-0.02-7.97c-0.11-3.5-0.46-6.99-0.49-10.49c-0.03-2.82,0.42-5.64,0.36-8.46
		c-0.08-4.12-0.61-8.19-0.03-12.38c0.48-3.52-0.04-7.17-0.13-10.77c-0.03-1.27-0.18-2.55-0.14-3.82c0.03-1.3,0.27-2.59,0.33-3.9
		c0.2-3.7,0.2-7.42,0.58-11.11c0.28-2.75,0.98-5.46,1.56-8.17c0.27-1.28,0.56-2.59,1.1-3.76c0.87-1.88,1.95-3.66,2.96-5.47
		c0.8-1.44,3.5-2.78,4.98-2.4c-0.15,0.53-0.28,1.06-0.46,1.58c-0.49,1.38-1.15,2.72-1.45,4.13c-0.12,0.57,0.37,1.45,0.84,1.92
		c0.54,0.53,1.35,0.59,2.09,0.05c0.4-0.3,0.89-0.49,1.35-0.72c2.13-1.07,2.7-4.17,1.11-5.92c-0.27-0.3-0.44-0.7-0.66-1.05
		c0.11-0.12,0.22-0.25,0.34-0.37c0.72,0.35,1.45,0.68,2.16,1.05c2.53,1.32,3.27,3.95,1.74,6.32c-0.47,0.73-1.02,1.48-1.72,1.96
		c-0.68,0.46-1.66,0.91-2.39,0.77c-1.74-0.34-3.39-1.07-5.11-1.54c-0.32-0.09-0.97,0.21-1.11,0.5c-0.33,0.71-0.5,1.5-0.64,2.28
		c-0.68,3.88-1.51,7.74-1.94,11.64c-0.42,3.8-0.46,7.65-0.59,11.48c-0.15,4.35-0.16,8.71-0.33,13.06c-0.08,2.14-0.54,4.27-0.57,6.41
		c-0.07,4.64,0.03,9.28,0.06,13.91c0.01,1.75,0.06,3.51,0.07,5.26c0.01,2.35-0.1,4.71,0.04,7.06c0.16,2.66,0.71,5.29,0.77,7.95
		c0.05,2.27,0.41,4.05,3.02,4.5c0.3,0.05,0.56,0.29,0.85,0.42c3.74,1.67,7.48,3.34,11.22,4.99c1.68,0.74,3.36,1.46,5.01,2.17
		c0.94-1.72,1.89-3.31,2.69-4.98c3.13-6.53,5.17-13.42,6.47-20.52c1.98-10.75,2.62-21.56,1.52-32.48
		c-0.96-9.44-2.77-18.66-6.31-27.48c-2.62-6.51-5.97-12.58-11.15-17.45c-3.75-3.53-8.04-5.95-13.35-6.01
		c-5.59-0.07-10.09,2.47-13.98,6.22c-5.24,5.04-8.61,11.28-11.22,17.97C44.24,47.39,42.38,58.07,41.86,69
		c-0.48,10.11,0.24,20.14,2.37,30.06c0.15,0.68,0.44,1.1,1.1,1.38c1.88,0.8,3.73,1.69,5.61,2.5c1.47,0.64,2.96,1.23,4.52,1.88
		c0-0.64-0.08-1.17,0.01-1.67c0.33-1.85-0.59-3.73,0.16-5.6c0.11-0.27-0.51-0.84-0.8-1.27c-0.48,0.96-1.19,0.1-1.78,0.18
		c-1.45,0.2-2.09-0.61-1.76-1.98c0.11-0.46,0.12-0.98,0.35-1.37c0.69-1.17,0.91-2.83,2.93-2.66c0.9,0.07,1.41-0.48,1.71-1.55
		C56.7,87.37,57.47,85.89,59.2,84.85z M99.71,124.54c0.61-0.9,1.29-1.74,1.77-2.67c6.7-13.01,9.46-27.02,10.41-41.47
		c0.56-8.6-0.3-17.11-1.79-25.55c-2.03-11.52-5.65-22.49-12.13-32.35c-4.05-6.16-9.02-11.3-15.88-14.38
		c-5.88-2.64-11.76-2.69-17.67-0.09c-5.05,2.22-9.19,5.62-12.67,9.85c-5.49,6.67-9.22,14.3-11.88,22.46
		c-5.53,16.96-6.81,34.29-4.2,51.91c1.64,11.08,4.71,21.72,10.21,31.56c3.39,6.06,7.48,11.56,13.29,15.56
		c4.87,3.35,10.18,5.56,16.21,4.72c9.95-1.39,16.58-7.65,22.16-15.52c-0.63-0.26-1.13-0.47-1.67-0.7c-0.26,0.36-0.49,0.67-0.72,1
		c-2.34,3.37-5.02,6.43-8.27,8.95c-8.57,6.64-18.39,6.66-26.96,0.05c-5.04-3.89-8.71-8.9-11.65-14.47
		c-6.89-13.02-9.7-27.09-10.53-41.63c-0.5-8.81-0.02-17.59,1.41-26.31c1.53-9.32,4.04-18.34,8.31-26.81
		c3.11-6.17,6.96-11.78,12.5-16.05c8.52-6.58,18.34-6.56,26.86,0.03c4.84,3.74,8.42,8.52,11.31,13.84
		c7.06,13.03,9.93,27.16,10.85,41.79c0.54,8.57,0.08,17.11-1.21,25.6c-1.56,10.26-4.33,20.15-9.2,29.38
		c-0.12,0.23-0.2,0.48-0.3,0.72C98.72,124.14,99.08,124.29,99.71,124.54z M45.53,103.95c0.12,0.58,0.15,0.85,0.24,1.1
		c1.39,3.79,2.6,7.65,4.22,11.34c2.56,5.84,6,11.12,10.94,15.28c6.84,5.75,14.7,6.47,21.85,2c3.23-2.02,5.84-4.7,8.07-7.68
		c-4.65-4.86-11.01-6.52-16.89-9.18c0.12,0.49,0.33,0.93,0.68,1.12c2.53,1.36,5.08,2.67,7.63,3.99c0.5,0.26,1.02,0.47,1.53,0.71
		c-0.06,0.14-0.11,0.28-0.17,0.42c-3.38-0.78-6.37-2.62-9.69-3.97c-0.02,2.01,0.63,3.83-0.33,5.8c-0.69,1.43-0.43,3.34-0.49,5.04
		c-0.09,2.65-0.06,2.65-2.5,3.36c-0.08,0.02-0.15,0.06-0.23,0.07c-1.26,0.25-1.79-0.25-1.65-1.55c0.12-1.15,0.3-2.3,0.31-3.45
		c0.01-1.27-0.23-2.54-0.21-3.81c0.03-1.82,0.27-3.64,0.25-5.45c-0.01-0.96-0.02-2.31-0.61-2.81c-1.82-1.54-3.91-2.75-5.87-4.08
		c-0.3,0.35-0.38,0.44-0.45,0.53c-0.51,0.57-0.92,1.34-1.55,1.66c-0.66,0.33-1.55,0.27-2.34,0.31c-0.24,0.01-0.64-0.13-0.73-0.31
		c-0.72-1.55-1.38-3.12-2.07-4.68c-0.16-0.37-0.29-0.88-0.59-1.05c-1.58-0.89-3.21-1.71-4.84-2.52
		C48.63,105.44,47.21,104.77,45.53,103.95z"/>
	<path d="M121.03,137.05c0.84-0.89,1.62-0.92,2.49-0.28c1.36,0.99,2.75,1.93,4.1,2.92c0.24,0.18,0.36,0.52,0.54,0.78
		c-0.34,0.1-0.71,0.35-1.02,0.29c-1.62-0.32-2.9-1.3-4.17-2.29C122.37,138,121.74,137.57,121.03,137.05z"/>
	<path d="M94.3,51.21c-2.39,0.23-4.63,0.45-6.99,0.69c0.24-0.32,0.47-0.71,0.78-1.02c1.56-1.53,1.84-3.38,1.39-5.41
		c-0.22-0.99-1.55-2.35-2.33-2.43c-0.84-0.08-2.66,1.05-3.13,1.94c-0.3,0.55-0.68,1.07-0.91,1.64c-0.31,0.76-0.54,1.56-0.76,2.35
		c-0.34,1.18-0.63,2.38-0.97,3.56c-0.91,3.15-0.96,6.33,0.21,9.39c0.49,1.28,1.45,2.45,2.4,3.48c0.87,0.94,2.38,0.11,2.8-1.43
		c0.29-1.06,0.16-1.48-0.95-2.47c2-0.36,3.83-0.69,5.64-1.01c-0.89,1.36-1.63,2.78-2.63,3.98c-1.34,1.6-3.25,2.24-5.29,2.32
		c-1.76,0.07-2.01,0.19-1.85,1.92c0.16,1.66,0.44,3.31,0.77,4.94c0.78,3.88,1.57,7.76,2.47,11.61c0.71,3.05,1.09,6.12,0.84,9.23
		c-0.22,2.68-0.71,5.34-1.05,8.02c-0.2,1.63-0.33,3.27-0.49,4.91c0.11,0.05,0.22,0.1,0.33,0.16c0.33-0.54,0.8-1.04,0.97-1.62
		c0.88-2.93,1.82-5.84,2.45-8.82c0.39-1.81,0.26-3.73,0.36-5.59c0.01-0.2,0.01-0.4,0-0.6c-0.17-1.96-0.17-1.95,1.89-2.12
		c0.66-0.05,1.31-0.2,2.03-0.32c0.02,0.28,0.08,0.44,0.04,0.57c-0.58,1.87-1.22,3.72-1.77,5.6c-0.82,2.81-1.52,5.67-2.42,8.46
		c-0.48,1.49-1.25,2.9-1.97,4.3c-0.26,0.51-0.76,0.89-1.14,1.34c-0.15,0.18-0.43,0.45-0.38,0.57c0.59,1.42-0.85,1.64-1.31,2.43
		c-0.06-0.12-0.13-0.25-0.19-0.37c-0.36,0.08-0.82,0.06-1.07,0.27c-1.08,0.9-2.09,1.88-3.13,2.82c-0.1-0.05-0.19-0.1-0.29-0.15
		c0.18-0.36,0.31-0.77,0.55-1.09c3.09-4.12,4.63-8.68,4.05-13.87c-0.02-0.18,0.05-0.36,0.06-0.54c0.05-1.21,0.17-2.42,0.11-3.62
		c-0.07-1.34-0.22-2.7-0.49-4.02c-0.91-4.4-1.94-8.77-2.82-13.18c-0.48-2.41-0.72-4.87-1.15-7.3c-0.23-1.29-0.68-2.54-0.9-3.82
		c-0.21-1.17-0.25-2.36-0.37-3.55c-0.11-1.07-0.33-2.13-0.3-3.19c0.03-1.18,0.17-2.39,0.49-3.52c0.7-2.45,1.41-4.91,2.39-7.25
		c0.76-1.81,1.8-3.56,3.01-5.11c0.74-0.95,1.97-1.87,3.1-2.04c0.94-0.15,2.09,0.73,3.07,1.3c0.94,0.55,1.36,1.51,1.82,2.52
		c0.7,1.54,1.75,2.93,2.65,4.38C94.08,50.66,94.16,50.91,94.3,51.21z"/>
	<path d="M53.38,73.38c0.05-2.32-0.83-4.31-2.1-6.21c-1.06,0.95-1.23,1.86-0.68,2.88c0.16,0.29,0.24,0.63,0.36,0.94
		c-0.53,0.17-1.05,0.47-1.58,0.47c-0.3,0-0.79-0.48-0.84-0.79c-0.08-0.56-0.05-1.24,0.22-1.72c0.95-1.69,2.02-3.31,3.82-4.45
		c0.73,1.45,1.42,2.82,2.19,4.35c0.52-0.73,0.95-1.36,1.41-1.97c1.94-2.58,5.63-1.14,6.64,1.01c0.52,1.1-0.13,2.05-0.89,2.59
		c-1.49,1.05-2.05,2.69-2.96,4.11c-0.13,0.21-0.05,0.67,0.09,0.92c0.77,1.36,1.68,2.65,2.36,4.06c0.88,1.81,2.42,3.07,3.64,4.59
		c0.25,0.31,1,0.21,1.76,0.34c-0.06,0.13-0.13,0.63-0.42,0.83c-2.28,1.67-3.65,1.15-5.44-1.04c-1.09-1.33-2.03-2.8-3-4.22
		c-0.28-0.42-0.47-0.9-0.87-1.7c-0.42,0.91-0.64,1.74-1.12,2.35c-0.55,0.69-1.35,1.2-2.03,1.78c1.19,1.24,1.34,2.36,0.6,3.54
		c-0.1,0.16-0.37,0.35-0.53,0.32c-1.03-0.19-2.34,0.44-2.95-1.13c-0.15-0.38-1.1-0.47-1.69-0.67c-0.38-0.13-0.78-0.2-1.35-0.34
		c1.01-1.08,1.97-1.66,3.26-1.62c1.07,0.03,2.39-1.21,2.37-2.27c-0.03-1.36-0.19-2.72-0.25-4.07c-0.01-0.24,0.22-0.48,0.46-0.95
		c-1.63,0-3.11,0-4.62,0C49.99,73.19,51.99,73.97,53.38,73.38z M58.79,73.46c0.45-0.73,0.92-1.51,1.41-2.29
		c0.61-0.97,0.31-1.81-0.3-2.64c-0.68-0.92-1.56-1.45-2.73-1.39c-0.17,0.01-0.4,0.14-0.49,0.29c-1.11,1.65-1.52,3.45-0.98,5.39
		c0.07,0.26,0.47,0.58,0.74,0.61C57.2,73.52,57.98,73.46,58.79,73.46z"/>
	<path d="M45.02,62.36c0.26-0.05,0.52-0.19,0.68-0.12c0.43,0.19,1.17,0.5,1.15,0.7c-0.06,0.58-0.34,1.21-0.73,1.64
		c-0.14,0.15-0.98-0.13-1.3-0.42c-0.76-0.68-0.88-1.64-0.48-2.53c0.44-0.96,1.09-1.87,2.37-1.61c1.08,0.22,2.13,0.61,3.21,0.88
		c1.14,0.28,2.29,0.49,3.52,0.75c0.42-2.46-0.23-4.56-0.77-6.68c-0.28-1.12-0.64-2.26-0.65-3.39c-0.02-1.87,0.7-3.51,2.31-4.63
		c0.52-0.36,1.02-0.76,1.46-1.09c-0.21-0.4-0.4-0.75-0.62-1.16c2.83,0,5.46,0,8.21,0c-0.11,0.38-0.39,0.94-0.41,1.52
		c-0.14,3.98-0.72,7.97-0.05,11.95c0.12,0.7,0.25,1.45,0.59,2.06c0.24,0.44,0.83,0.69,1.27,1.01c0.27,0.2,0.56,0.37,0.99,0.65
		c-2.62,0.42-4.98,0.79-7.39,1.17c0-0.07-0.07-0.29,0.01-0.43c1.51-2.55,0.97-5.45,1.39-8.18c0.04-0.27-0.44-0.65-0.71-0.94
		c-0.09-0.09-0.3-0.08-0.46-0.08c-4.41-0.07-3.69-0.32-3.77,3.5c-0.03,1.23,0.05,2.46,0.08,3.7c0.04,1.28-1.58,2.42-3.04,2.06
		c-1.58-0.4-3.14-0.9-4.7-1.39C45.73,60.84,45.47,60.94,45.02,62.36z M59.74,51.54c-0.22-1.74-0.38-3.27-0.63-4.78
		c-0.15-0.86-0.96-0.96-1.61-0.89c-0.41,0.04-0.98,0.42-1.11,0.79c-0.51,1.4-0.87,2.85-1.33,4.47
		C56.64,51.26,58.01,51.38,59.74,51.54z"/>
	<path d="M94.08,84.69c-0.09-0.51-0.29-1-0.25-1.47c0.11-1.31,0.36-2.6,0.46-3.9c0.06-0.74,0.04-1.52-0.15-2.23
		c-0.09-0.35-0.81-0.89-0.95-0.81c-0.43,0.23-0.77,0.7-1.02,1.14c-0.14,0.24,0.09,0.72-0.07,0.92c-0.2,0.26-0.76,0.57-0.93,0.47
		c-0.85-0.51-1.48-1.22-1.37-2.33c0.07-0.74,0.38-1.08,1.18-1.22c2.02-0.36,4.02-0.9,6.03-1.3c1.79-0.35,3.59-0.66,5.39-0.86
		c0.46-0.05,1.27,0.28,1.38,0.61c0.14,0.42-0.14,1.15-0.48,1.52c-0.86,0.95-1.85,1.77-2.94,2.79c-0.18-0.39-0.36-0.99-0.71-1.45
		c-0.33-0.43-0.84-0.72-1.27-1.07c-0.37,0.48-0.95,0.91-1.05,1.44c-0.18,0.88-0.04,1.83-0.05,2.75
		C97.22,81.85,96.29,83.82,94.08,84.69z"/>
	<path d="M102.64,56.66c-0.62,0.94-1.32,0.67-2.13,0.48c-1.21-0.29-2.46-0.4-3.71-0.46c-0.2-0.01-0.59,0.61-0.61,0.96
		c-0.06,1.15-0.03,2.31,0.04,3.47c0.05,0.86,1,1.34,2.34,1.26c0.2-0.01,0.41-0.14,0.58-0.1c0.46,0.11,0.91,0.28,1.36,0.43
		c-0.29,0.26-0.55,0.6-0.89,0.75c-0.93,0.4-1.87,0.83-2.85,1.05c-1.64,0.38-2.64-0.33-3.05-1.98c-0.04-0.15-0.03-0.36-0.12-0.45
		c-1.39-1.35-0.65-2.6,0.16-3.85c0.48-0.76,0.93-1.54,1.46-2.26c1.06-1.44,2.6-1.07,3.95-0.77
		C100.33,55.43,101.4,56.11,102.64,56.66z"/>
</g>
</svg>
